<svg width="99" height="34" viewBox="0 0 99 34" fill="none" xmlns="http://www.w3.org/2000/svg">
<path d="M15.6064 23.4844C15.3916 23.8652 15.1133 24.2754 14.7715 24.7148C14.4395 25.1543 14.0635 25.5645 13.6436 25.9453C13.2236 26.3164 12.7744 26.6289 12.2959 26.8828C11.8271 27.1367 11.3438 27.2637 10.8457 27.2637C10.2402 27.2637 9.68848 27.1318 9.19043 26.8682C8.69238 26.6045 8.2334 26.2725 7.81348 25.8721C7.40332 25.4717 7.02246 25.0273 6.6709 24.5391C6.3291 24.0508 6.00684 23.582 5.7041 23.1328C5.28418 22.5176 4.85938 21.8535 4.42969 21.1406C4.00977 20.418 3.58496 19.7393 3.15527 19.1045V26.3701L0.123047 27.4541V6.47754L3.15527 5.39355V18.1816L12.9111 5.96484L14.625 6.12598L5.49902 16.9512C6.23145 17.9473 6.96387 18.9873 7.69629 20.0713C8.42871 21.1553 9.17578 22.1855 9.9375 23.1621C10.084 23.3574 10.2451 23.5625 10.4209 23.7773C10.5967 23.9824 10.7871 24.1729 10.9922 24.3486C11.1973 24.5146 11.417 24.6562 11.6514 24.7734C11.8857 24.8809 12.1445 24.9346 12.4277 24.9346C12.6328 24.9346 12.8672 24.8662 13.1309 24.7295C13.3945 24.583 13.6533 24.4121 13.9072 24.2168C14.1611 24.0215 14.3955 23.8213 14.6104 23.6162C14.8252 23.4014 14.9961 23.2207 15.123 23.0742L15.6064 23.4844ZM32.3057 26.3701L29.2734 27.4541V19.1338H21.6562V26.3701L18.624 27.4541V19.1338H16.2803L17.3643 17.0098H18.624V6.47754L21.6562 5.39355V17.0098H29.2734V6.47754L32.3057 5.39355V26.3701ZM50.792 26.2236C50.792 27.0146 50.6895 27.7422 50.4844 28.4062C50.2891 29.0703 50.001 29.6807 49.6201 30.2373C49.249 30.7939 48.79 31.2969 48.2432 31.7461C47.6963 32.2051 47.0762 32.625 46.3828 33.0059C46.207 33.1035 46.002 33.1865 45.7676 33.2549C45.543 33.3232 45.3086 33.3818 45.0645 33.4307C44.8203 33.4795 44.5811 33.5137 44.3467 33.5332C44.1123 33.5625 43.8926 33.5771 43.6875 33.5771C42.8965 33.5771 42.1494 33.4355 41.4463 33.1523C40.7432 32.8691 40.0889 32.4688 39.4834 31.9512L41.9443 29.7832C42.0908 30.0762 42.291 30.3789 42.5449 30.6914C42.7988 31.0137 43.0869 31.3018 43.4092 31.5557C43.7314 31.8193 44.0684 32.0342 44.4199 32.2002C44.7812 32.376 45.1377 32.4639 45.4893 32.4639C45.7334 32.4639 45.9531 32.4248 46.1484 32.3467C46.5098 32.2002 46.7979 32 47.0127 31.7461C47.2275 31.502 47.3887 31.2188 47.4961 30.8965C47.6133 30.584 47.6865 30.252 47.7158 29.9004C47.7451 29.5488 47.7598 29.2021 47.7598 28.8604V21.6973C47.5645 22.4199 47.3057 23.1133 46.9834 23.7773C46.6611 24.4316 46.2607 25.0127 45.7822 25.5205C45.3037 26.0186 44.7422 26.4189 44.0977 26.7217C43.4629 27.0244 42.7354 27.1758 41.915 27.1758C41.29 27.1758 40.7529 27.0586 40.3037 26.8242C39.8545 26.5898 39.4834 26.2773 39.1904 25.8867C38.8975 25.4961 38.6826 25.0469 38.5459 24.5391C38.4092 24.0215 38.3408 23.4795 38.3408 22.9131V9.33398C38.3408 9.13867 38.3213 8.94336 38.2822 8.74805C38.2432 8.55273 38.1748 8.38184 38.0771 8.23535C37.9893 8.0791 37.8672 7.95215 37.7109 7.85449C37.5547 7.75684 37.3643 7.70801 37.1396 7.70801C36.8076 7.70801 36.4902 7.80566 36.1875 8.00098C35.8848 8.19629 35.6357 8.4209 35.4404 8.6748L34.957 8.25C35.1035 7.9668 35.2842 7.69336 35.499 7.42969C35.7236 7.16602 35.9727 6.93164 36.2461 6.72656C36.5293 6.52148 36.8271 6.36035 37.1396 6.24316C37.4521 6.11621 37.7744 6.05273 38.1064 6.05273C38.6436 6.05273 39.1172 6.15527 39.5273 6.36035C39.9375 6.56543 40.2793 6.84375 40.5527 7.19531C40.8262 7.53711 41.0312 7.93262 41.168 8.38184C41.3047 8.83105 41.373 9.30469 41.373 9.80273V21.8145C41.373 22.1758 41.3779 22.5713 41.3877 23.001C41.3975 23.4307 41.4561 23.8359 41.5635 24.2168C41.6709 24.5879 41.8564 24.9004 42.1201 25.1543C42.3838 25.4082 42.7646 25.5352 43.2627 25.5352C43.8193 25.5352 44.3125 25.3691 44.7422 25.0371C45.1816 24.7051 45.5674 24.2754 45.8994 23.748C46.2412 23.2109 46.5293 22.6055 46.7637 21.9316C46.998 21.2578 47.1885 20.584 47.335 19.9102C47.4814 19.2363 47.5889 18.5967 47.6572 17.9912C47.7256 17.376 47.7598 16.8584 47.7598 16.4385V6.87305L50.792 5.78906V26.2236ZM73.8779 24.9932C73.7314 25.2764 73.5459 25.5498 73.3213 25.8135C73.1064 26.0771 72.8574 26.3115 72.5742 26.5166C72.3008 26.7119 72.0078 26.873 71.6953 27C71.3828 27.1172 71.0605 27.1758 70.7285 27.1758C70.1816 27.1758 69.7031 27.0732 69.293 26.8682C68.8926 26.6631 68.5508 26.3896 68.2676 26.0479C67.9941 25.6963 67.7891 25.2959 67.6523 24.8467C67.5156 24.3975 67.4473 23.9238 67.4473 23.4258V17.7568C67.3105 18.3818 67.1543 19.0557 66.9785 19.7783C66.8027 20.4912 66.5879 21.2041 66.334 21.917C66.0801 22.6201 65.7822 23.2988 65.4404 23.9531C65.0986 24.6074 64.6934 25.1885 64.2246 25.6963C63.7656 26.1943 63.2383 26.5947 62.6426 26.8975C62.0469 27.1904 61.3682 27.3369 60.6064 27.3369C59.6787 27.3369 58.8486 27.1611 58.1162 26.8096C57.3838 26.458 56.7588 25.9746 56.2412 25.3594C55.7334 24.7441 55.3428 24.0166 55.0693 23.1768C54.8057 22.3271 54.6738 21.4092 54.6738 20.4229C54.6738 19.251 54.8594 18.0791 55.2305 16.9072C55.6016 15.7256 56.1094 14.5928 56.7539 13.5088C57.4082 12.4248 58.1797 11.4189 59.0684 10.4912C59.9668 9.56348 60.9434 8.75781 61.998 8.07422C63.0527 7.39062 64.1611 6.8584 65.3232 6.47754C66.4951 6.09668 67.6768 5.91602 68.8682 5.93555H69.0439V6.59473C68.0186 6.64355 67.0322 6.86816 66.085 7.26855C65.1377 7.65918 64.249 8.17676 63.4189 8.82129C62.5986 9.45605 61.8467 10.1934 61.1631 11.0332C60.4795 11.873 59.8936 12.7666 59.4053 13.7139C58.9268 14.6611 58.5508 15.6377 58.2773 16.6436C58.0137 17.6494 57.8818 18.6406 57.8818 19.6172C57.8818 19.998 57.9062 20.4082 57.9551 20.8477C58.0039 21.2773 58.0869 21.7119 58.2041 22.1514C58.3213 22.5811 58.4727 22.9961 58.6582 23.3965C58.8438 23.7871 59.0732 24.1387 59.3467 24.4512C59.6299 24.7539 59.957 24.998 60.3281 25.1836C60.6992 25.3594 61.124 25.4473 61.6025 25.4473C62.1787 25.4473 62.7012 25.2715 63.1699 24.9199C63.6387 24.5684 64.0635 24.0947 64.4443 23.499C64.8252 22.9033 65.1621 22.21 65.4551 21.4189C65.7578 20.6279 66.0215 19.793 66.2461 18.9141C66.4707 18.0352 66.6562 17.1416 66.8027 16.2334C66.959 15.3154 67.0811 14.4365 67.1689 13.5967C67.2666 12.7568 67.335 11.9805 67.374 11.2676C67.4229 10.5449 67.4473 9.93945 67.4473 9.45117L70.4795 8.33789V23.9092C70.4795 24.1045 70.499 24.2998 70.5381 24.4951C70.5771 24.6904 70.6455 24.8711 70.7432 25.0371C70.8408 25.1934 70.9629 25.3203 71.1094 25.418C71.2656 25.5156 71.4561 25.5645 71.6807 25.5645C72.0225 25.5645 72.3447 25.4619 72.6475 25.2568C72.9502 25.0518 73.1992 24.8223 73.3945 24.5684L73.8779 24.9932ZM93.8291 7.7666C91.7686 5.8623 89.9229 4.47559 88.292 3.60645C86.6611 2.7373 85.1182 2.30273 83.6631 2.30273C82.3447 2.30273 81.3486 2.52246 80.6748 2.96191C80.0107 3.40137 79.5566 4.03125 79.3125 4.85156C79.0684 5.66211 78.9463 6.80957 78.9463 8.29395V22.3857C78.9463 23.0107 78.9854 23.46 79.0635 23.7334C79.1514 23.9971 79.2832 24.207 79.459 24.3633C79.6348 24.5098 79.8838 24.6123 80.2061 24.6709C80.5283 24.7295 80.9727 24.7588 81.5391 24.7588L81.3047 27H80.9971C79.8838 27 78.9902 26.834 78.3164 26.502C77.6426 26.1602 77.1787 25.6914 76.9248 25.0957C76.6709 24.4902 76.5439 23.6406 76.5439 22.5469V7.37109C76.5439 5.50586 76.8174 4.08008 77.3643 3.09375C77.9111 2.10742 78.6924 1.36523 79.708 0.867188C80.7334 0.359375 81.9785 0.105469 83.4434 0.105469C85.4062 0.105469 87.3594 0.603516 89.3027 1.59961C91.2559 2.5957 93.3311 4.16797 95.5283 6.31641L93.8291 7.7666ZM93.7412 16.1895H90.2402C89.0098 16.1895 88.0967 16.2676 87.501 16.4238C86.915 16.5703 86.4463 16.8486 86.0947 17.2588C85.7432 17.6689 85.5674 18.1914 85.5674 18.8262C85.5674 19.7246 85.9043 20.667 86.5781 21.6533C87.2617 22.6396 88.3213 23.7676 89.7568 25.0371L88.1309 26.6484C86.2852 25.0078 84.9863 23.5723 84.2344 22.3418C83.4824 21.1016 83.1064 19.8662 83.1064 18.6357C83.1064 17.7959 83.3213 17.0244 83.751 16.3213C84.1807 15.6182 84.8447 15.0615 85.7432 14.6514C86.6514 14.2314 88.0234 14.0215 89.8594 14.0215H93.7412V8.92383L96.1436 9.24609V22.4443C96.1436 23.0693 96.1826 23.5186 96.2607 23.792C96.3486 24.0557 96.4805 24.2656 96.6562 24.4219C96.832 24.5684 97.0811 24.6709 97.4033 24.7295C97.7256 24.7881 98.1699 24.8174 98.7363 24.8174L98.502 27H98.1943C97.0811 27 96.1875 26.834 95.5137 26.502C94.8398 26.1602 94.376 25.6914 94.1221 25.0957C93.8682 24.4902 93.7412 23.6406 93.7412 22.5469V16.1895Z" fill="#0D0D0D"/>
</svg>
